<svg xmlns="http://www.w3.org/2000/svg" viewBox="0 0 169.83 346.66"><defs><style>.cls-1{fill:none;stroke:#fff;stroke-miterlimit:10;}.cls-2{fill:#8e84e0;}</style></defs><g id="Drawing"><path class="cls-1" d="M180.91,68.43a136.9,136.9,0,0,0,13.22,45.92,205.38,205.38,0,0,0-43.48,99.13c-2.64,12.69-5,26.65-6.61,41.74-1.36,12.42-2.11,24.17-2.43,35.13-.59,6.23.91,9,2.43,10.43,1,.92,2.21,1.44,3.48,3.13a11.41,11.41,0,0,1,2.09,5.22q-1.11,22.15-2.09,44.52-.93,21.14-1.74,42.09l41.74,2.08c2.16-5.61,4.28-11.64,6.26-18.08,2.26-7.32,4.09-14.31,5.57-20.87A152.29,152.29,0,0,0,199.7,337a152.81,152.81,0,0,0-3.13-23.31c-.48-3.11-.94-6.24-1.4-9.39q-1.08-7.53-2.08-15a54,54,0,0,1,17.39-35.47,139.21,139.21,0,0,0,15,50.78A32.59,32.59,0,0,0,248,325.83c11.5.44,23.58.59,36.18.34q13.47-.26,26.08-1v-56a140.43,140.43,0,0,0-37.91,16.7,98.55,98.55,0,0,0,11.13-40.35,166.61,166.61,0,0,0,1.39-20.87,168.2,168.2,0,0,0-2.08-27.13c-.15-1.7-.27-3.44-.35-5.22a127.75,127.75,0,0,1,.35-17,69.62,69.62,0,0,0,13.91-40.7,67.65,67.65,0,0,0-9-41q-5-7.42-10.09-15.31-6.23-9.7-11.83-19.13c.23-2.28.47-4.57.7-6.86H179.17Z" transform="translate(-140.98 -51.68)"/><path class="cls-1" d="M194.83,118.87c.45,4.83.85,10.21,1.11,16.06.17,3.88.35,9.83.28,17-.05,4.24-.18,15.09-1.39,26.44-1.23,11.5-3.74,21.5-8.7,41-4.13,16.27-6.27,24.57-9.74,32.7a139.22,139.22,0,0,1-13.91,25,14.09,14.09,0,0,1-8.7-2.43c-5.49-3.85-5.88-10.32-5.91-11.13a174.67,174.67,0,0,1,3.3-53.42,205.23,205.23,0,0,1,16-52.26L187,123.74a6.55,6.55,0,0,1,3.34-4.52A6.34,6.34,0,0,1,194.83,118.87Z" transform="translate(-140.98 -51.68)"/><path class="cls-1" d="M289.78,107c.94,5,4,24.88-8,44.53a63,63,0,0,1-27.13,24l-4.52,8,4.52-8a53,53,0,0,0-10.43,4.86,55.2,55.2,0,0,0-14.61,12.87,54.28,54.28,0,0,0,14.61-42.08,141.14,141.14,0,0,0-45.92,64.35c-3.37,11.89-7.58,24.74-12.87,38.26-4.43,11.32-9.08,21.76-13.75,31.3a14.61,14.61,0,0,0,8.54,4.17,13.79,13.79,0,0,0,4.87-.34l8.28-2.23a57,57,0,0,1,7.77-21.67c3.36-5.45,6.11-7.71,10-12,0,0,16.85-18.31,29.21-50A115.82,115.82,0,0,1,246,190.73c1.93-3.67,3.66-6.5,4.67-8.1" transform="translate(-140.98 -51.68)"/><path class="cls-1" d="M186.48,382.17a39.51,39.51,0,0,1-3.11-5.35,42.86,42.86,0,0,1-3.15-9.6c-1-4.52-.81-6.26-1.39-11.13a112,112,0,0,0-2.44-12.87c-1.29-5.84-3-15.85-4.71-34.09a40.18,40.18,0,0,1,6.1-12.52,39.64,39.64,0,0,1,7.31-7.65,6.3,6.3,0,0,1,4.8-1.3,6.11,6.11,0,0,1,3.2,1.64q3.3,23.83,6.61,47.66l-4.08,36.55-2.71,5.09L191,382.17Z" transform="translate(-140.98 -51.68)"/><path class="cls-1" d="M248,65c6.32,18.24,8,30.7,8.26,38.87a137.81,137.81,0,0,0,2.18,21.65c1.1,6,2,8.71,2.78,12.17,1.53,7,2.4,17.44-1,31.65a34.95,34.95,0,0,0,21.56-17.73,61.48,61.48,0,0,0,8.82-27.16l-1.83-29A45.77,45.77,0,0,0,248,65Z" transform="translate(-140.98 -51.68)"/><path class="cls-1" d="M274,74.78" transform="translate(-140.98 -51.68)"/><path class="cls-1" d="M196.23,118.94a56.7,56.7,0,0,1-2.45-22.68,55.68,55.68,0,0,1,2.44-11.65c2.48-3.42,13.25-17.48,33-21.39C254.2,58.28,272.67,73.57,275,75.56" transform="translate(-140.98 -51.68)"/><path class="cls-1" d="M194.83,119.21c.45,4.83.85,10.2,1.11,16,.17,3.89.35,9.83.28,17-.05,4.24-.18,15.09-1.39,26.43-1.23,11.5-3.74,21.51-8.7,41-4.13,16.26-6.27,24.56-9.74,32.69a139,139,0,0,1-13.91,25.05,14.12,14.12,0,0,1-8.7-2.44c-5.49-3.84-5.88-10.31-5.91-11.13a174.69,174.69,0,0,1,3.3-53.42,205,205,0,0,1,16-52.25L187,124.08a6.55,6.55,0,0,1,3.34-4.52A6.23,6.23,0,0,1,194.83,119.21Z" transform="translate(-140.98 -51.68)"/><path class="cls-1" d="M191.87,125.13a386.33,386.33,0,0,0-42.44,136.7" transform="translate(-140.98 -51.68)"/><path class="cls-1" d="M191.87,132.26a304.84,304.84,0,0,1-14.26,46.09,303.42,303.42,0,0,1-19,39.13" transform="translate(-140.98 -51.68)"/><path class="cls-1" d="M191.87,141.13a140.57,140.57,0,0,1-12.35,47.65,140,140,0,0,1-19.48,31" transform="translate(-140.98 -51.68)"/><path class="cls-1" d="M189.43,176.61A135.34,135.34,0,0,1,158.65,226" transform="translate(-140.98 -51.68)"/><path class="cls-1" d="M189.43,190.7a139.45,139.45,0,0,1-33.56,44" transform="translate(-140.98 -51.68)"/><path class="cls-1" d="M185.69,203.74a81.89,81.89,0,0,1-28.95,35.83" transform="translate(-140.98 -51.68)"/><path class="cls-1" d="M182,220.78a89.07,89.07,0,0,1-26.09,28.35" transform="translate(-140.98 -51.68)"/><path class="cls-1" d="M178.83,235A102.19,102.19,0,0,1,166,249.48a101.06,101.06,0,0,1-13.57,10.61" transform="translate(-140.98 -51.68)"/><path class="cls-1" d="M174,250a40.56,40.56,0,0,1-19,16.87" transform="translate(-140.98 -51.68)"/><path class="cls-1" d="M185.69,130.87a247.82,247.82,0,0,0-37.12,116.65" transform="translate(-140.98 -51.68)"/><path class="cls-1" d="M248,65c6.32,18.24,8,30.7,8.26,38.87a137.81,137.81,0,0,0,2.18,21.65c1.1,6,2,8.71,2.78,12.17,1.53,7,2.4,17.44-1,31.65a34.95,34.95,0,0,0,21.56-17.73,61.48,61.48,0,0,0,8.82-27.16l-1.83-29A45.77,45.77,0,0,0,248,65Z" transform="translate(-140.98 -51.68)"/><path class="cls-1" d="M272.39,75.74a33.39,33.39,0,0,1-1.22,10.78c-1.7,6-4.34,8.66-7.47,14.78a66.18,66.18,0,0,0-5.4,14.61" transform="translate(-140.98 -51.68)"/><path class="cls-1" d="M277.43,83.22C275,87,272.54,91,270.13,95.39a192.51,192.51,0,0,0-10.26,21.74" transform="translate(-140.98 -51.68)"/><path class="cls-1" d="M281.26,87.91a53.29,53.29,0,0,0-7.48,8.87,76.59,76.59,0,0,0-5,9.22c-1.68,3.36-4.14,8.19-7.31,14.09" transform="translate(-140.98 -51.68)"/><path class="cls-1" d="M284.22,94c-2.91,2.76-5.88,5.76-8.87,9a174.67,174.67,0,0,0-15.48,19.66" transform="translate(-140.98 -51.68)"/><path class="cls-1" d="M286.57,98.7a58.9,58.9,0,0,0-4.79,4.52,60.84,60.84,0,0,0-5.82,7.13c-2.29,3.19-6.63,7.66-15.66,13.3" transform="translate(-140.98 -51.68)"/><path class="cls-1" d="M287.09,105.57a98.36,98.36,0,0,1-12.26,11.3,97.39,97.39,0,0,1-14.53,9.3" transform="translate(-140.98 -51.68)"/><path class="cls-1" d="M288.13,113.65a104.36,104.36,0,0,1-12.52,8.18,103.3,103.3,0,0,1-14.7,6.69" transform="translate(-140.98 -51.68)"/><path class="cls-1" d="M288.13,119.65a74.22,74.22,0,0,1-26,12.61" transform="translate(-140.98 -51.68)"/><path class="cls-1" d="M288.91,122.65A53.61,53.61,0,0,1,263,134.39" transform="translate(-140.98 -51.68)"/><path class="cls-1" d="M289.48,130.78a35.68,35.68,0,0,1-24.09,12.61" transform="translate(-140.98 -51.68)"/><path class="cls-1" d="M285.61,139.65a23.83,23.83,0,0,1-10.44,9,23.46,23.46,0,0,1-10.78,1.91" transform="translate(-140.98 -51.68)"/><path class="cls-1" d="M263.78,153.22a9.41,9.41,0,0,0,7.57,6.78" transform="translate(-140.98 -51.68)"/><path class="cls-1" d="M269.32,74c-.4,2.9-.79,5.8-1.19,8.7C266.6,86,265.08,89.42,263.61,93c-2,5-3.8,9.87-5.31,14.48" transform="translate(-140.98 -51.68)"/><path class="cls-1" d="M265.39,71.57a106.22,106.22,0,0,1-8.13,27.13" transform="translate(-140.98 -51.68)"/><path class="cls-1" d="M256,68.26a37.34,37.34,0,0,1,1.74,9.39c.21,3.83-.79,15.3-.52,11.48h0" transform="translate(-140.98 -51.68)"/><path class="cls-1" d="M289.78,107c.94,5,4,24.88-8,44.53a63,63,0,0,1-27.13,24l-4.52,8,4.52-8a53,53,0,0,0-10.43,4.86,55.2,55.2,0,0,0-14.61,12.87,54.28,54.28,0,0,0,14.61-42.08,141.14,141.14,0,0,0-45.92,64.35c-3.37,11.89-7.58,24.74-12.87,38.26-4.43,11.32-9.08,21.76-13.75,31.3a14.61,14.61,0,0,0,8.54,4.17,13.79,13.79,0,0,0,4.87-.34l8.28-2.23a57,57,0,0,1,7.77-21.67c3.36-5.45,6.11-7.71,10-12,0,0,16.85-18.31,29.21-50A115.82,115.82,0,0,1,246,190.73c1.93-3.67,3.66-6.5,4.67-8.1" transform="translate(-140.98 -51.68)"/><path class="cls-1" d="M242.74,156a183.5,183.5,0,0,0-42.91,59.48" transform="translate(-140.98 -51.68)"/><path class="cls-1" d="M242.74,158.52a305.21,305.21,0,0,0-46,67.48" transform="translate(-140.98 -51.68)"/><path class="cls-1" d="M242.09,163.74c-7.33,9.34-14.83,19.51-22.31,30.52-8.71,12.82-16.36,25.24-23.08,37" transform="translate(-140.98 -51.68)"/><path class="cls-1" d="M240.91,169.3q-10.56,17.4-22,35.27-14.73,22.89-29.44,44.08" transform="translate(-140.98 -51.68)"/><path class="cls-1" d="M242.09,183.91a114,114,0,0,0-23.61,24.7c-7.88,11.25-10.74,19.83-15.48,30.09a209.42,209.42,0,0,1-29,45.56" transform="translate(-140.98 -51.68)"/><path class="cls-1" d="M248,181.74a258.72,258.72,0,0,0-23.43,30.39c-12.78,19.44-16.46,30.89-31.18,52.57-6.43,9.48-12.23,16.85-16,21.52" transform="translate(-140.98 -51.68)"/><path class="cls-1" d="M248,183.91c-3.23,6.86-7.88,16.18-14,26.92-4.83,8.43-10.25,17.13-32.74,49.69-4.79,6.93-10.83,15.64-17.87,25.7" transform="translate(-140.98 -51.68)"/><path class="cls-1" d="M177.39,304.87c-.31,2.78-.55,5.74-.65,8.87a113.11,113.11,0,0,0,.65,16.43" transform="translate(-140.98 -51.68)"/><path class="cls-1" d="M182,301.22a164.64,164.64,0,0,0-.33,26c1.17,17.74,4.46,23.29,7.63,26.72a25.2,25.2,0,0,0,5.48,4.44" transform="translate(-140.98 -51.68)"/><path class="cls-1" d="M179.87,334.88a54.08,54.08,0,0,0,5.74,22.95,53.19,53.19,0,0,0,8.09,11.74" transform="translate(-140.98 -51.68)"/><path class="cls-1" d="M186.48,382.17a39.51,39.51,0,0,1-3.11-5.35,42.86,42.86,0,0,1-3.15-9.6c-1-4.52-.81-6.26-1.39-11.13a112,112,0,0,0-2.44-12.87c-1.29-5.84-3-15.85-4.71-34.09a40.18,40.18,0,0,1,6.1-12.52,39.64,39.64,0,0,1,7.31-7.65,6.3,6.3,0,0,1,4.8-1.3,6.11,6.11,0,0,1,3.2,1.64q3.3,23.83,6.61,47.66l-4.08,36.55-2.71,5.09L191,382.17Z" transform="translate(-140.98 -51.68)"/></g><g id="Push"><path class="cls-2" d="M195.94,135.26c.17,3.89.35,9.83.28,17-.05,4.24-.18,15.09-1.39,26.43-1.23,11.5-3.74,21.51-8.7,41-4.13,16.26-6.27,24.56-9.74,32.69a139,139,0,0,1-13.91,25.05,14.12,14.12,0,0,1-8.7-2.44c-5.49-3.84-5.88-10.31-5.91-11.13a174.69,174.69,0,0,1,3.3-53.42,205,205,0,0,1,16-52.25L187,124.08a6.55,6.55,0,0,1,3.34-4.52,6.23,6.23,0,0,1,4.52-.35C195.28,124,195.68,129.41,195.94,135.26Z" transform="translate(-140.98 -51.68)"/><path class="cls-1" d="M194.83,119.21c.45,4.83.85,10.2,1.11,16,.17,3.89.35,9.83.28,17-.05,4.24-.18,15.09-1.39,26.43-1.23,11.5-3.74,21.51-8.7,41-4.13,16.26-6.27,24.56-9.74,32.69a139,139,0,0,1-13.91,25.05,14.12,14.12,0,0,1-8.7-2.44c-5.49-3.84-5.88-10.31-5.91-11.13a174.69,174.69,0,0,1,3.3-53.42,205,205,0,0,1,16-52.25L187,124.08a6.55,6.55,0,0,1,3.34-4.52A6.23,6.23,0,0,1,194.83,119.21Z" transform="translate(-140.98 -51.68)"/><path class="cls-1" d="M191.87,125.13a386.33,386.33,0,0,0-42.44,136.7" transform="translate(-140.98 -51.68)"/><path class="cls-1" d="M191.87,132.26a304.84,304.84,0,0,1-14.26,46.09,303.42,303.42,0,0,1-19,39.13" transform="translate(-140.98 -51.68)"/><path class="cls-1" d="M191.87,141.13a140.57,140.57,0,0,1-12.35,47.65,140,140,0,0,1-19.48,31" transform="translate(-140.98 -51.68)"/><path class="cls-1" d="M189.43,176.61A135.34,135.34,0,0,1,158.65,226" transform="translate(-140.98 -51.68)"/><path class="cls-1" d="M189.43,190.7a139.45,139.45,0,0,1-33.56,44" transform="translate(-140.98 -51.68)"/><path class="cls-1" d="M185.69,203.74a81.89,81.89,0,0,1-28.95,35.83" transform="translate(-140.98 -51.68)"/><path class="cls-1" d="M182,220.78a89.07,89.07,0,0,1-26.09,28.35" transform="translate(-140.98 -51.68)"/><path class="cls-1" d="M178.83,235A102.19,102.19,0,0,1,166,249.48a101.06,101.06,0,0,1-13.57,10.61" transform="translate(-140.98 -51.68)"/><path class="cls-1" d="M174,250a40.56,40.56,0,0,1-19,16.87" transform="translate(-140.98 -51.68)"/><path class="cls-1" d="M185.69,130.87a247.82,247.82,0,0,0-37.12,116.65" transform="translate(-140.98 -51.68)"/><path class="cls-2" d="M288.77,95.37l1.83,29a61.48,61.48,0,0,1-8.82,27.16,34.95,34.95,0,0,1-21.56,17.73c3.44-14.21,2.57-24.63,1-31.65-.75-3.46-1.68-6.14-2.78-12.17a137.81,137.81,0,0,1-2.18-21.65C256,95.66,254.36,83.2,248,65a45.77,45.77,0,0,1,40.73,30.41Z" transform="translate(-140.98 -51.68)"/><path class="cls-1" d="M248,65c6.32,18.24,8,30.7,8.26,38.87a137.81,137.81,0,0,0,2.18,21.65c1.1,6,2,8.71,2.78,12.17,1.53,7,2.4,17.44-1,31.65a34.95,34.95,0,0,0,21.56-17.73,61.48,61.48,0,0,0,8.82-27.16l-1.83-29A45.77,45.77,0,0,0,248,65Z" transform="translate(-140.98 -51.68)"/><path class="cls-1" d="M272.39,75.74a33.39,33.39,0,0,1-1.22,10.78c-1.7,6-4.34,8.66-7.47,14.78a66.18,66.18,0,0,0-5.4,14.61" transform="translate(-140.98 -51.68)"/><path class="cls-1" d="M277.43,83.22C275,87,272.54,91,270.13,95.39a192.51,192.51,0,0,0-10.26,21.74" transform="translate(-140.98 -51.68)"/><path class="cls-1" d="M281.26,87.91a53.29,53.29,0,0,0-7.48,8.87,76.59,76.59,0,0,0-5,9.22c-1.68,3.36-4.14,8.19-7.31,14.09" transform="translate(-140.98 -51.68)"/><path class="cls-1" d="M284.22,94c-2.91,2.76-5.88,5.76-8.87,9a174.67,174.67,0,0,0-15.48,19.66" transform="translate(-140.98 -51.68)"/><path class="cls-1" d="M286.57,98.7a58.9,58.9,0,0,0-4.79,4.52,60.84,60.84,0,0,0-5.82,7.13c-2.29,3.19-6.63,7.66-15.66,13.3" transform="translate(-140.98 -51.68)"/><path class="cls-1" d="M287.09,105.57a98.36,98.36,0,0,1-12.26,11.3,97.39,97.39,0,0,1-14.53,9.3" transform="translate(-140.98 -51.68)"/><path class="cls-1" d="M288.13,113.65a104.36,104.36,0,0,1-12.52,8.18,103.3,103.3,0,0,1-14.7,6.69" transform="translate(-140.98 -51.68)"/><path class="cls-1" d="M288.13,119.65a74.22,74.22,0,0,1-26,12.61" transform="translate(-140.98 -51.68)"/><path class="cls-1" d="M288.91,122.65A53.61,53.61,0,0,1,263,134.39" transform="translate(-140.98 -51.68)"/><path class="cls-1" d="M289.48,130.78a35.68,35.68,0,0,1-24.09,12.61" transform="translate(-140.98 -51.68)"/><path class="cls-1" d="M285.61,139.65a23.83,23.83,0,0,1-10.44,9,23.46,23.46,0,0,1-10.78,1.91" transform="translate(-140.98 -51.68)"/><path class="cls-1" d="M263.78,153.22a9.41,9.41,0,0,0,7.57,6.78" transform="translate(-140.98 -51.68)"/><path class="cls-1" d="M269.32,74c-.4,2.9-.79,5.8-1.19,8.7C266.6,86,265.08,89.42,263.61,93c-2,5-3.8,9.87-5.31,14.48" transform="translate(-140.98 -51.68)"/><path class="cls-1" d="M265.39,71.57a106.22,106.22,0,0,1-8.13,27.13" transform="translate(-140.98 -51.68)"/><path class="cls-1" d="M256,68.26a37.34,37.34,0,0,1,1.74,9.39c.21,3.83-.79,15.3-.52,11.48h0" transform="translate(-140.98 -51.68)"/></g></svg>