<svg xmlns="http://www.w3.org/2000/svg" viewBox="0 0 248.66 279.33"><defs><style>.cls-1{fill:#fff;}.cls-2{fill:#8e84e0;}.cls-3{fill:none;stroke:#fff;stroke-miterlimit:10;}</style></defs><g id="Push"><path class="cls-1" d="M267,200.73l.25.57-.6.13A21.31,21.31,0,0,0,252,212.78a48.33,48.33,0,0,0-5.36,26.64,95.7,95.7,0,0,1,6.82,25v.11L252,269.82l-.42-.06a15.22,15.22,0,0,0-3.63-.05c-4.62.49-7.84,3-9.76,4.57l-.8.63c-3.14,2.35-7,3.09-10.87,3.09a54.48,54.48,0,0,1-11-1.43c-18.42-3.8-27.32-22.7-28.27-24.85a26.38,26.38,0,0,1-2.79-8,27.12,27.12,0,0,1,1.08-13.49,27.18,27.18,0,0,1,1.18-12.12,26.75,26.75,0,0,1,5.11-9,29.2,29.2,0,0,1,.07-12.89,28.7,28.7,0,0,1,3.43-8.35l.06-.08a22.41,22.41,0,0,1,9.16-6.07c12.65-4.37,24.23,4.95,25.51,6a41.71,41.71,0,0,0,26.8,10.11,7.16,7.16,0,0,1,6.27-.88A7.07,7.07,0,0,1,267,200.73Zm-1.2-.13a5.91,5.91,0,0,0-3-2.6,6.18,6.18,0,0,0-5.48.84l-.14.1H257a42.77,42.77,0,0,1-27.6-10.35c-1.23-1-12.4-10-24.54-5.85a21.5,21.5,0,0,0-8.71,5.77,27.46,27.46,0,0,0-3.28,8,28.17,28.17,0,0,0,0,12.69l.05.25-.16.19a25.75,25.75,0,0,0-5.08,8.81,26.27,26.27,0,0,0-1.12,11.78l0,.12,0,.12a26.16,26.16,0,0,0-1.09,13.1,25.38,25.38,0,0,0,2.71,7.69c1,2.13,9.64,20.61,27.58,24.31,5.58,1.15,14.92,3.08,21-1.48l.78-.61c2-1.6,5.36-4.27,10.27-4.79a15.92,15.92,0,0,1,3.45,0l1.25-4.25a93.69,93.69,0,0,0-2.27-11.63,95,95,0,0,0-4.49-13.1l0-.15a49.4,49.4,0,0,1,1.22-16,48.87,48.87,0,0,1,4.24-11.23,22.67,22.67,0,0,1,6-7.44A22.39,22.39,0,0,1,265.82,200.6Z" transform="translate(-81.72 -88.9)"/><path class="cls-2" d="M262.78,198a5.91,5.91,0,0,1,3,2.6,22.39,22.39,0,0,0-8.67,4.28,22.67,22.67,0,0,0-6,7.44,48.87,48.87,0,0,0-4.24,11.23,49.4,49.4,0,0,0-1.22,16l0,.15a95,95,0,0,1,4.49,13.1,93.69,93.69,0,0,1,2.27,11.63l-1.25,4.25a15.92,15.92,0,0,0-3.45,0c-4.91.52-8.26,3.19-10.27,4.79l-.78.61c-6.1,4.56-15.44,2.63-21,1.48-17.94-3.7-26.63-22.18-27.58-24.31a25.38,25.38,0,0,1-2.71-7.69,26.16,26.16,0,0,1,1.09-13.1l0-.12,0-.12a26.27,26.27,0,0,1,1.12-11.78,25.75,25.75,0,0,1,5.08-8.81l.16-.19-.05-.25a28.17,28.17,0,0,1,0-12.69,27.46,27.46,0,0,1,3.28-8,21.5,21.5,0,0,1,8.71-5.77c12.14-4.19,23.31,4.81,24.54,5.85A42.77,42.77,0,0,0,257,198.94h.16l.14-.1A6.18,6.18,0,0,1,262.78,198Z" transform="translate(-81.72 -88.9)"/><path class="cls-1" d="M327.62,216.21a47.28,47.28,0,0,1-3.24,28.29A59.74,59.74,0,0,1,309.25,275a48.44,48.44,0,0,1-6,5.47,47.32,47.32,0,0,1-8,4.93,26.55,26.55,0,0,1-8,1.24,25.63,25.63,0,0,1-7-1,26,26,0,0,1-13.11-8.81,56.23,56.23,0,0,1-10.46-36.5A43.74,43.74,0,0,1,290.31,201l.71-.17-.1.72a5.55,5.55,0,0,0,2,5.43,4.84,4.84,0,0,0,3.78.54,6.85,6.85,0,0,0,4.32-3.29l.11-.19.21-.05a18.77,18.77,0,0,0,13.06-11.17l.29-.71.53.55A46.74,46.74,0,0,1,327.62,216.21Zm-4.18,27.94A45.72,45.72,0,0,0,315,193.89a19.84,19.84,0,0,1-5.41,7.07,20.08,20.08,0,0,1-7.83,3.95,7.89,7.89,0,0,1-4.86,3.58,5.87,5.87,0,0,1-4.55-.69,6.32,6.32,0,0,1-2.51-5.67,42.74,42.74,0,0,0-32.11,38.24A55.1,55.1,0,0,0,268,276.2a24.73,24.73,0,0,0,26.92,8.23,46.48,46.48,0,0,0,7.73-4.81,45.62,45.62,0,0,0,5.85-5.35,58.78,58.78,0,0,0,14.9-30Z" transform="translate(-81.72 -88.9)"/><path class="cls-2" d="M326.64,216.41a46.32,46.32,0,0,1-3.2,27.74l0,.12a58.78,58.78,0,0,1-14.9,30,45.62,45.62,0,0,1-5.85,5.35,46.48,46.48,0,0,1-7.73,4.81A24.73,24.73,0,0,1,268,276.2a55.1,55.1,0,0,1-10.26-35.83,42.74,42.74,0,0,1,32.11-38.24,6.32,6.32,0,0,0,2.51,5.67,5.87,5.87,0,0,0,4.55.69,7.89,7.89,0,0,0,4.86-3.58,20.08,20.08,0,0,0,7.83-3.95,19.84,19.84,0,0,0,5.41-7.07A46.38,46.38,0,0,1,326.64,216.41Z" transform="translate(-81.72 -88.9)"/><path class="cls-1" d="M311.43,281.74a7.61,7.61,0,0,1-.59,3.22,101,101,0,0,1-12.66,38.17l-11.55,27.81-.34-1.54a94.55,94.55,0,0,1-1.65-31,82.83,82.83,0,0,1,8.71-29.9A28.35,28.35,0,0,1,309.26,277l.33-.09.2.27A8,8,0,0,1,311.43,281.74Zm-1.54,2.89a6.74,6.74,0,0,0,.54-2.86,6.86,6.86,0,0,0-1.23-3.7,27.36,27.36,0,0,0-15,10.95,81.92,81.92,0,0,0-5.63,14.16,80.76,80.76,0,0,0-2.94,15.33,93.6,93.6,0,0,0,1.29,29.1l10.35-24.92a99.84,99.84,0,0,0,12.57-37.92Z" transform="translate(-81.72 -88.9)"/><path class="cls-2" d="M310.43,281.77a6.74,6.74,0,0,1-.54,2.86l0,.14a99.84,99.84,0,0,1-12.57,37.92l-10.35,24.92a93.6,93.6,0,0,1-1.29-29.1,80.76,80.76,0,0,1,2.94-15.33A81.92,81.92,0,0,1,294.21,289a27.36,27.36,0,0,1,15-10.95A6.86,6.86,0,0,1,310.43,281.77Z" transform="translate(-81.72 -88.9)"/></g><g id="Drawing"><path class="cls-1" d="M280.69,368.24c-1.89,0-3.26-1.11-6.1-3.39l-1.24-1a32.54,32.54,0,0,0-4-3,28.42,28.42,0,0,1-4-3.08c-5.25-4.42-8.49-7.54-10.64-9.6-3.25-3.12-4.23-4.07-6.51-4.33-1.75-.2-2.58.19-4.81,1.22-1.61.74-3.82,1.76-7.47,3.08a127.89,127.89,0,0,1-15.48,4.32c-4.71,1-7.39,1-30.41,1-8.9,0-13.79,0-16.84-1-4.32-1.48-10.62-4.87-16.16-12.56-.37-.51-9-12.92-7.17-40.49a57.41,57.41,0,0,1,.9-8.58c.05-.21.11-.42.16-.61a6.61,6.61,0,0,0,.33-2.53c0-.41-.11-.76-.17-1.07a2.86,2.86,0,0,1,.11-2.07,2,2,0,0,1,1-.88c.24-.13.36-.19.46-.37.24-.43,0-1-.4-1.87a11.74,11.74,0,0,1-.64-1.66A8.17,8.17,0,0,1,152,275l.21-.73c.22-.8.71-3.72,1.68-9.55a34.49,34.49,0,0,0,.62-6.38,50.72,50.72,0,0,1,.6-7.36l.1-.76c.4-2.83.66-4.7-.36-6.73a4.94,4.94,0,0,0-.9-1.27,12.1,12.1,0,0,1-1.7-2.34c-.5-.84-.84-1.54-1.17-2.21a21,21,0,0,0-1.74-3.06c-.79-1.15-1.41-2.06-1.73-2.07h0c-.55,0-1.09,1.23-1.77,2.8a36.31,36.31,0,0,1-2.78,5.38,13.2,13.2,0,0,1-2.09,2.48c-.94,1-2.51,2.61-5.36,5.72-4.88,5.32-5.38,6.13-5.86,7.1a14.85,14.85,0,0,0-1.15,3.3,30,30,0,0,1-1.49,4.52c-1.49,3.67-2.24,5.51-3.43,6.5-2.61,2.2-6.06,1-11.78-1.05a114.38,114.38,0,0,0-11.25-3.51,101.79,101.79,0,0,0-11.37-2.08c-4.46-.62-6.92-1-7.43-3-.42-1.67.92-3,3.34-5.29A78.44,78.44,0,0,0,91.27,249h0a84,84,0,0,0,7.86-11.39,31.57,31.57,0,0,0,4.24-12.43,29.69,29.69,0,0,1,3.35-10.68,37.19,37.19,0,0,1,7.19-9.48c2.59-2.64,4.63-4.72,5.37-9.28a13.45,13.45,0,0,0-.12-5.06,48.71,48.71,0,0,1-.69-7.62,68.6,68.6,0,0,1,1.79-17.91c1.91-7.81,4.79-19.61,13.32-24.72l1-.55a26.36,26.36,0,0,0,6.38-4.71,17,17,0,0,0,2.81-3.66,8.33,8.33,0,0,1,2.25-2.69c2.28-1.76,4.27-1.69,6.78-1.6a27,27,0,0,0,7.64-.59,16.93,16.93,0,0,0,5.82-2.4,20.4,20.4,0,0,1,6.79-2.78,27,27,0,0,1,6.49-.75,10.14,10.14,0,0,0,5.05-1,11.52,11.52,0,0,0,4.87-4.21,9.22,9.22,0,0,1,4.37-3.72c3.17-1.27,5.65-.45,8.53.49a24.89,24.89,0,0,0,8,1.57c5.67.07,9.76-2.24,15.43-5.43,2-1.14,6.67-5.19,11.16-9.11,9.6-8.36,12.78-10.88,14-10.31h0c1.46.7,1.2,2.64.84,5.33-.46,3.51-1.1,8.31,1.09,13.84,2.51,6.3,8.38,12.43,15,15.59a33.56,33.56,0,0,0,3.42,1.4,35.18,35.18,0,0,1,6.35,2.89,77.55,77.55,0,0,1,9.2,6.49c2.71,2.09,5,3.88,7.86,6.49a61.21,61.21,0,0,1,8.47,9.08,44.23,44.23,0,0,1,7,13.06,27.08,27.08,0,0,1,1.31,6.51,7.75,7.75,0,0,0,1.34,4.33,10.46,10.46,0,0,0,4.76,3.92,12.1,12.1,0,0,1,5.29,4.34c1,1.41,1.14,2.16,2.81,9.31l.42,1.81c1.42,6.08,2,8.28,2.21,9.32.19.78.23.91.34,1.51a93,93,0,0,1,1.82,21.74c0,.18-.78,18.07-8,32.64-2.54,5.13-3.82,7.7-5.82,9.45l-1.06.88c-1.45,1.16-2.82,2.26-3.42,4.22a7.48,7.48,0,0,0,0,3.92c1.06,4.56-.13,9.56-2.29,18.63a39.45,39.45,0,0,1-3.17,8.65c-1.19,2.64-2.82,6.25-5.39,12.4-1.41,3.38-1.76,4.31-2.4,6s-1.74,4.6-4.88,12.47l-1.41,3.52c-3.69,9.19-4.26,10.6-4.24,13.53,0,1.16.09,2.23.18,3.26.24,2.81.45,5.25-1.14,8-.6,1.05-2.83,4.5-6.27,4.7Zm-33.32-25.42a7.75,7.75,0,0,1,.93.06c2.62.3,3.75,1.38,7.1,4.6,2.13,2,5.36,5.15,10.59,9.56a28.35,28.35,0,0,0,3.83,3,31.81,31.81,0,0,1,4.16,3.05l1.24,1c2.86,2.3,4,3.24,5.7,3.16,3-.18,5.08-3.52,5.46-4.19,1.44-2.5,1.24-4.79,1-7.44-.09-1.05-.19-2.14-.19-3.33,0-3.12.55-4.56,4.31-13.91l1.41-3.52c3.14-7.86,4.19-10.63,4.88-12.46s1-2.64,2.41-6c2.57-6.16,4.27-9.93,5.4-12.42a38.61,38.61,0,0,0,3.11-8.48c2.12-8.92,3.29-13.83,2.31-18.07a8.42,8.42,0,0,1,0-4.53c.68-2.26,2.24-3.51,3.74-4.72.35-.28.7-.55,1-.84,1.86-1.62,3.1-4.14,5.59-9.14,7.14-14.38,7.9-32.06,7.91-32.24a91.38,91.38,0,0,0-1.8-21.5c-.11-.58-.14-.72-.33-1.47-.26-1-.8-3.25-2.22-9.33l-.42-1.81c-1.63-7-1.8-7.72-2.66-9a11,11,0,0,0-4.91-4,11.57,11.57,0,0,1-5.15-4.27,8.72,8.72,0,0,1-1.5-4.79,25.58,25.58,0,0,0-1.26-6.29,43.05,43.05,0,0,0-6.84-12.77,59.76,59.76,0,0,0-8.34-8.94c-2.79-2.58-5.1-4.37-7.78-6.43a76.78,76.78,0,0,0-9.1-6.42,33.61,33.61,0,0,0-6.19-2.82,34.7,34.7,0,0,1-3.52-1.44c-6.78-3.27-12.84-9.6-15.43-16.13-2.3-5.76-1.61-10.92-1.16-14.33.3-2.24.51-3.87-.25-4.29h0c-1.23,0-8,5.87-12.88,10.16-4.74,4.13-9.22,8-11.33,9.22-5.8,3.27-10,5.62-15.93,5.56a26,26,0,0,1-8.29-1.62c-2.8-.92-5-1.64-7.85-.51a8.38,8.38,0,0,0-3.94,3.38,12.49,12.49,0,0,1-5.24,4.53,11.26,11.26,0,0,1-5.47,1.08,25.09,25.09,0,0,0-6.27.73,19.06,19.06,0,0,0-6.5,2.66,18,18,0,0,1-6.11,2.51,28,28,0,0,1-7.9.62c-2.49-.09-4.15-.14-6.14,1.39a7.29,7.29,0,0,0-2,2.41,18.05,18.05,0,0,1-3,3.85,27,27,0,0,1-6.6,4.88l-.93.53c-8.18,4.9-11,16.46-12.87,24.1A67.62,67.62,0,0,0,119.48,183a48.87,48.87,0,0,0,.67,7.48,14.42,14.42,0,0,1,.13,5.38c-.79,4.87-2.94,7.06-5.65,9.82a36.36,36.36,0,0,0-7,9.25,28.17,28.17,0,0,0-3.25,10.36A32.49,32.49,0,0,1,100,238.09a84.48,84.48,0,0,1-8,11.54,82.79,82.79,0,0,1-6.22,6.56c-2.32,2.23-3.33,3.26-3.07,4.32.35,1.37,2.57,1.67,6.6,2.23a102.55,102.55,0,0,1,11.47,2.1,118.39,118.39,0,0,1,11.35,3.54c5.38,1.9,8.62,3.05,10.8,1.23,1-.84,1.72-2.6,3.15-6.11a29.68,29.68,0,0,0,1.44-4.4,15.93,15.93,0,0,1,1.22-3.49c.53-1.08,1-1.9,6-7.34,2.86-3.12,4.44-4.76,5.39-5.73a12.5,12.5,0,0,0,2-2.33,35.27,35.27,0,0,0,2.7-5.25c.91-2.08,1.51-3.49,2.75-3.39.81,0,1.34.81,2.51,2.51a23.38,23.38,0,0,1,1.81,3.18c.32.66.65,1.33,1.13,2.14a11.33,11.33,0,0,0,1.58,2.18,5.79,5.79,0,0,1,1.05,1.49c1.16,2.31.87,4.41.46,7.32l-.1.76a50,50,0,0,0-.59,7.24,35.13,35.13,0,0,1-.63,6.51c-1,5.88-1.48,8.82-1.71,9.67l-.21.73c-.45,1.61-.79,2.78-.39,4.21a10.2,10.2,0,0,0,.59,1.52c.44,1,.86,1.87.37,2.76a1.91,1.91,0,0,1-.88.78,1,1,0,0,0-.54.47c-.2.37-.15.71,0,1.39a8.44,8.44,0,0,1,.18,1.18,7.55,7.55,0,0,1-.35,2.88c0,.19-.11.39-.16.59a56.23,56.23,0,0,0-.87,8.4c-1.85,27.18,6.89,39.72,7,39.85,5.38,7.48,11.5,10.76,15.67,12.19,2.9,1,7.73,1,16.51,1,23.79,0,25.76-.09,30.22-1a125.58,125.58,0,0,0,15.34-4.28c3.61-1.3,5.79-2.31,7.39-3.05C244.86,343.3,245.9,342.82,247.37,342.82Zm3.11-252.93Z" transform="translate(-81.72 -88.9)"/><path class="cls-3" d="M206.12,169.76" transform="translate(-81.72 -88.9)"/><path class="cls-1" d="M206.59,169.92l-1-.32a84.17,84.17,0,0,1,7-15.23,51,51,0,0,1,4.89-7.05c1.32-1.67,2.83-3.56,5.19-7a136.24,136.24,0,0,0,13.33-24c1.24-3,2.38-6,3.37-9.1l1,.31c-1,3.09-2.14,6.18-3.4,9.17a136.3,136.3,0,0,1-13.43,24.15c-2.38,3.45-4,5.44-5.23,7a49.66,49.66,0,0,0-4.81,6.93A83.52,83.52,0,0,0,206.59,169.92Z" transform="translate(-81.72 -88.9)"/><path class="cls-1" d="M199.73,170.72a18.54,18.54,0,0,1-2.77-4.58,20.61,20.61,0,0,1-1.33-10.45l0-.13c.64-6.31,1.08-22.14,1.59-42.18l1,0c-.51,20.07-1,35.92-1.6,42.26v.14a19.66,19.66,0,0,0,1.25,9.95,17.6,17.6,0,0,0,2.63,4.34Z" transform="translate(-81.72 -88.9)"/><path class="cls-1" d="M239.44,185.78a50.85,50.85,0,0,1-16.55-2.64c-1.91-.65-3.52-1.33-5.09-2-3.53-1.5-6.32-2.68-10.25-2.46a19.34,19.34,0,0,0-9.24,3.1l-.53-.85a20.44,20.44,0,0,1,9.71-3.25c4.16-.23,7.19,1,10.7,2.54,1.55.66,3.15,1.34,5,2a50.47,50.47,0,0,0,16.65,2.58v1Z" transform="translate(-81.72 -88.9)"/><path class="cls-1" d="M196.47,175.12l-1,0c.2-4.76-.83-8.21-3.05-10.27-1.74-1.61-3.68-1.91-6.13-2.28a25.63,25.63,0,0,1-6.69-1.73A23.66,23.66,0,0,1,169.5,152l.83-.56a22.6,22.6,0,0,0,9.67,8.42,24.68,24.68,0,0,0,6.44,1.66c2.52.38,4.69.72,6.66,2.54C195.55,166.34,196.68,170.06,196.47,175.12Z" transform="translate(-81.72 -88.9)"/><path class="cls-1" d="M249.31,337.57a114.1,114.1,0,0,1,7.37-75.86A53.34,53.34,0,0,1,249.94,242a53.88,53.88,0,0,1,1.51-21.48l1,.26a53,53,0,0,0-1.48,21.09,52.23,52.23,0,0,0,6.75,19.6l.13.23-.11.24a113.1,113.1,0,0,0-7.42,75.43Z" transform="translate(-81.72 -88.9)"/><path class="cls-1" d="M182.78,300a15.23,15.23,0,0,1-1-6.07,11.52,11.52,0,0,1,1.43-5.08,11.5,11.5,0,0,0,1.19-3.33c.41-2.42-.29-3.78-1.18-5.5A17,17,0,0,1,181,273a15.32,15.32,0,0,1,.36-4.89,32.94,32.94,0,0,0,.68-6.25,49.3,49.3,0,0,0-.57-8.58l1-.16a50.39,50.39,0,0,1,.58,8.76,33.37,33.37,0,0,1-.7,6.42,14.16,14.16,0,0,0-.34,4.61,16,16,0,0,0,2.06,6.71c.94,1.81,1.75,3.38,1.28,6.13a12.3,12.3,0,0,1-1.27,3.59,10.67,10.67,0,0,0-1.33,4.7,14,14,0,0,0,.95,5.67Z" transform="translate(-81.72 -88.9)"/><path class="cls-1" d="M189.59,346.6c-3,0-6.32-1.36-9.89-4.06a7.13,7.13,0,0,1-2.6-2.3c-1.29-1.92-1.41-4.14-.46-9.14a77.14,77.14,0,0,1,2.89-10.76l.94.33a75.45,75.45,0,0,0-2.84,10.62c-.9,4.69-.82,6.73.3,8.39a6.34,6.34,0,0,0,2.31,2q6.24,4.73,11,3.73a8.91,8.91,0,0,0,4-2.15,21,21,0,0,1,5.77-3.45,20.17,20.17,0,0,1,5.14-1.34,12.3,12.3,0,0,0,4.18-1.18,17.8,17.8,0,0,0,7.6-7.51l.87.49a18.86,18.86,0,0,1-8,7.92,13.22,13.22,0,0,1-4.48,1.27,19.08,19.08,0,0,0-4.9,1.27,20.15,20.15,0,0,0-5.53,3.31,9.77,9.77,0,0,1-4.44,2.35A9.21,9.21,0,0,1,189.59,346.6Z" transform="translate(-81.72 -88.9)"/><path class="cls-1" d="M287.33,286.59a25.63,25.63,0,0,1-7-1,26,26,0,0,1-13.11-8.81,56.23,56.23,0,0,1-10.46-36.5A43.74,43.74,0,0,1,290.31,201l.71-.17-.1.72a5.55,5.55,0,0,0,2,5.43,4.84,4.84,0,0,0,3.78.54,6.85,6.85,0,0,0,4.32-3.29l.11-.19.21-.05a18.77,18.77,0,0,0,13.06-11.17l.29-.71.53.55a46.74,46.74,0,0,1,12.4,23.56,47.28,47.28,0,0,1-3.24,28.29A59.74,59.74,0,0,1,309.25,275a48.44,48.44,0,0,1-6,5.47,47.32,47.32,0,0,1-8,4.93A26.55,26.55,0,0,1,287.33,286.59Zm2.53-84.46a42.74,42.74,0,0,0-32.11,38.24A55.1,55.1,0,0,0,268,276.2a24.73,24.73,0,0,0,26.92,8.23,46.48,46.48,0,0,0,7.73-4.81,45.62,45.62,0,0,0,5.85-5.35,58.78,58.78,0,0,0,14.9-30l0-.12A45.72,45.72,0,0,0,315,193.89a19.84,19.84,0,0,1-5.41,7.07,20.08,20.08,0,0,1-7.83,3.95,7.89,7.89,0,0,1-4.86,3.58,5.87,5.87,0,0,1-4.55-.69A6.32,6.32,0,0,1,289.86,202.13Z" transform="translate(-81.72 -88.9)"/><path class="cls-1" d="M261.24,348.26l-.07-.91a6,6,0,0,0-9.09-5.13l-.5.27-.2-.53a80,80,0,0,1-5.44-30.81,32.59,32.59,0,0,1,3.55-23l4.06-8.09a6.78,6.78,0,0,1,4.47-6.37,6.86,6.86,0,0,1,5.63.82,22.74,22.74,0,0,1,7.6,6.1,22.5,22.5,0,0,1,3.21,5.33,47.85,47.85,0,0,1,4.63,11.84,48.45,48.45,0,0,1,.53,20.39A45.29,45.29,0,0,1,262,347.71Zm-6-7.86a6.78,6.78,0,0,1,2.11.34,7.29,7.29,0,0,1,4.71,5.65A44.4,44.4,0,0,0,278.64,318a47.55,47.55,0,0,0-.52-20,47,47,0,0,0-4.56-11.64,21.82,21.82,0,0,0-10.41-11,5.85,5.85,0,0,0-4.81-.74,5.78,5.78,0,0,0-3.79,5.55v.12l-4.18,8.31A31.62,31.62,0,0,0,246.93,311v.12a79.12,79.12,0,0,0,5.17,30A7.67,7.67,0,0,1,255.23,340.4Z" transform="translate(-81.72 -88.9)"/><path class="cls-1" d="M286.63,350.94l-.34-1.54a94.55,94.55,0,0,1-1.65-31,82.83,82.83,0,0,1,8.71-29.9A28.35,28.35,0,0,1,309.26,277l.33-.09.2.27a8,8,0,0,1,1.64,4.55,7.61,7.61,0,0,1-.59,3.22,101,101,0,0,1-12.66,38.17Zm22.57-72.87a27.36,27.36,0,0,0-15,10.95,81.92,81.92,0,0,0-5.63,14.16,80.76,80.76,0,0,0-2.94,15.33,93.6,93.6,0,0,0,1.29,29.1l10.35-24.92a99.84,99.84,0,0,0,12.57-37.92l0-.14a6.74,6.74,0,0,0,.54-2.86A6.86,6.86,0,0,0,309.2,278.07Z" transform="translate(-81.72 -88.9)"/><path class="cls-1" d="M285.15,180.51a27.69,27.69,0,0,1-4-.28h-.1a11.53,11.53,0,0,1-5.93-1.61c-4.88-2.92-5.69-8.46-5.82-9.91A46.18,46.18,0,0,0,264,163.2a45.47,45.47,0,0,0-10.32-6.81l-.11,0-.08-.11a68.27,68.27,0,0,1-10.42-22.35,71,71,0,0,1,0-33.67c3.38-7.29,5-8,6.08-7.74,1.27.26,1.49,1.9,1.85,4.6a46.87,46.87,0,0,0,2,9.43c1,3,3.1,9.12,8.4,13.69a18.23,18.23,0,0,0,6.62,3.58,61.37,61.37,0,0,1,6.56,2.76A70.37,70.37,0,0,1,289,136.31c14.41,11.8,24.17,29.51,24.3,36a2.9,2.9,0,0,1-.73,2.29c-.38.34-.69.34-2,.38-.76,0-1.9,0-3.69.14s-3.89.25-5.79.42a27.74,27.74,0,0,1-7.94,3.78A28,28,0,0,1,285.15,180.51Zm-3.91-1.27a27.82,27.82,0,0,0,11.65-.83,27.22,27.22,0,0,0,7.76-3.72l.11-.08h.13c1.95-.18,4-.33,6-.44,1.8-.09,2.95-.12,3.72-.14,1.05,0,1.25,0,1.34-.13a2,2,0,0,0,.4-1.52c-.11-5.62-9.28-23.3-23.93-35.29a69.37,69.37,0,0,0-14.19-9.65,59.33,59.33,0,0,0-6.46-2.72,19.14,19.14,0,0,1-6.93-3.77c-5.51-4.74-7.66-11.07-8.7-14.12A48,48,0,0,1,250,97.21c-.28-2-.49-3.64-1.06-3.76h0c-.34-.08-1.74.21-5,7.09a70.32,70.32,0,0,0,0,33.1,67.52,67.52,0,0,0,10.19,21.91,46.57,46.57,0,0,1,16,12.65l.1.12v.16c.05.65.6,6.43,5.35,9.28a10.74,10.74,0,0,0,5.52,1.48Z" transform="translate(-81.72 -88.9)"/><path class="cls-1" d="M226.72,278a54.48,54.48,0,0,1-11-1.43c-18.42-3.8-27.32-22.7-28.28-24.85a26.66,26.66,0,0,1-2.79-8,27.13,27.13,0,0,1,1.09-13.49A27.18,27.18,0,0,1,187,218.15a26.9,26.9,0,0,1,5.1-9,29.2,29.2,0,0,1,.08-12.89,28.67,28.67,0,0,1,3.42-8.35l.07-.08a22.32,22.32,0,0,1,9.15-6.07c12.66-4.37,24.23,4.95,25.51,6a41.71,41.71,0,0,0,26.8,10.11,7.19,7.19,0,0,1,6.28-.88,7,7,0,0,1,3.89,3.67l.26.57-.61.13a21.32,21.32,0,0,0-8.89,4.23,21.54,21.54,0,0,0-5.73,7.12,48.09,48.09,0,0,0-5.36,26.64,96.45,96.45,0,0,1,4.5,13.17,95.41,95.41,0,0,1,2.32,11.85v.11l-1.56,5.27-.43-.06a15.21,15.21,0,0,0-3.63-.05c-4.61.49-7.83,3-9.75,4.57l-.8.63C234.44,277.26,230.55,278,226.72,278Zm-30.33-89.49a28,28,0,0,0-3.28,8,28.32,28.32,0,0,0,0,12.69l.06.25-.17.19a25.73,25.73,0,0,0-5.07,8.81,26,26,0,0,0-1.12,11.78v.12l0,.12a26.17,26.17,0,0,0-1.08,13.1,25.63,25.63,0,0,0,2.7,7.69c1,2.13,9.65,20.61,27.58,24.31,5.58,1.15,14.93,3.08,21-1.48l.78-.61c2-1.6,5.36-4.27,10.27-4.79a15.83,15.83,0,0,1,3.44,0l1.26-4.25A94.6,94.6,0,0,0,246,239.74l0-.15a49.21,49.21,0,0,1,5.46-27.27,22.29,22.29,0,0,1,14.67-11.72,6,6,0,0,0-3-2.6,6.21,6.21,0,0,0-5.49.84l-.13.1h-.17a42.83,42.83,0,0,1-27.6-10.35c-1.23-1-12.4-10-24.53-5.85A21.6,21.6,0,0,0,196.39,188.51Z" transform="translate(-81.72 -88.9)"/><path class="cls-1" d="M181.78,317.22l-.63-.78c3.08-2.47,4.12-4.83,3.66-5.52-.34-.5-2-.63-4.41.14l-.3-1c1-.32,4.51-1.28,5.54.26S185,314.67,181.78,317.22Z" transform="translate(-81.72 -88.9)"/><path class="cls-1" d="M293.9,177.87a69.65,69.65,0,0,1-36.27-23.71,68.87,68.87,0,0,1-14-32.68l1-.15a67.74,67.74,0,0,0,13.81,32.21,68.65,68.65,0,0,0,35.74,23.37Z" transform="translate(-81.72 -88.9)"/><path class="cls-1" d="M289,174.65c-7.3-2.75-25.43-11.37-36-31.86a67.59,67.59,0,0,1-6.54-41.54l1,.16a66.66,66.66,0,0,0,6.45,40.92c10.45,20.18,28.31,28.67,35.51,31.39Z" transform="translate(-81.72 -88.9)"/><path class="cls-1" d="M293.82,174.64a79.06,79.06,0,0,1-45.43-58.73l1-.17a78,78,0,0,0,44.85,58Z" transform="translate(-81.72 -88.9)"/><path class="cls-1" d="M296.76,173.4A91.48,91.48,0,0,1,251.24,116l1-.26a90.45,90.45,0,0,0,45,56.82Z" transform="translate(-81.72 -88.9)"/><path class="cls-1" d="M299.33,173.36a147.06,147.06,0,0,1-45.87-54.46l.9-.44a146,146,0,0,0,45.56,54.09Z" transform="translate(-81.72 -88.9)"/><path class="cls-1" d="M301.1,171.55a70.5,70.5,0,0,0-11.72-14.36,68.06,68.06,0,0,0-9.48-7.39,64.23,64.23,0,0,1-7-5.3,56.27,56.27,0,0,1-14.7-21.7l.93-.37a55.37,55.37,0,0,0,14.43,21.33,63.13,63.13,0,0,0,6.95,5.21,69.37,69.37,0,0,1,9.6,7.49A71.67,71.67,0,0,1,302,171Z" transform="translate(-81.72 -88.9)"/><path class="cls-1" d="M303.88,173.2a125.17,125.17,0,0,0-41.45-44.74l.55-.84a126.45,126.45,0,0,1,41.78,45.1Z" transform="translate(-81.72 -88.9)"/><path class="cls-1" d="M307.72,168.87a70.26,70.26,0,0,0-12-19.67c-1.28-1.47-5.17-5.94-23.65-19.15-5.24-3.74-10.59-7.43-15.89-11l.55-.84c5.31,3.53,10.67,7.22,15.92,11,18.58,13.27,22.39,17.65,23.83,19.3a71.64,71.64,0,0,1,12.15,20Z" transform="translate(-81.72 -88.9)"/><path class="cls-1" d="M259.12,246.93l-1,0a49.76,49.76,0,0,1,20-38.05l.6.81a48.78,48.78,0,0,0-19.62,37.27Z" transform="translate(-81.72 -88.9)"/><path class="cls-1" d="M268.63,275a53.13,53.13,0,0,1-3.9-36.49,52.46,52.46,0,0,1,18.48-27.94l.61.79a51.46,51.46,0,0,0-18.12,27.41,52,52,0,0,0,3.82,35.78Z" transform="translate(-81.72 -88.9)"/><path class="cls-1" d="M273.88,280.73a70,70,0,0,1,14.92-67.65l.74.66a69,69,0,0,0-14.71,66.7Z" transform="translate(-81.72 -88.9)"/><path class="cls-1" d="M279.72,282.21a113.63,113.63,0,0,1,12.41-71.5l.88.47a112.72,112.72,0,0,0-12.3,70.88Z" transform="translate(-81.72 -88.9)"/><path class="cls-1" d="M282.82,279.89l-1-.1a346.33,346.33,0,0,1,6.32-40.15c2.12-9.69,4.68-19.39,7.63-28.84l1,.29c-2.93,9.43-5.49,19.11-7.6,28.76A342,342,0,0,0,282.82,279.89Z" transform="translate(-81.72 -88.9)"/><path class="cls-1" d="M286.19,280l-.91-.41A145.81,145.81,0,0,0,298.18,211l1-.05a146.85,146.85,0,0,1-13,69.12Z" transform="translate(-81.72 -88.9)"/><path class="cls-1" d="M291.59,280.14l-.8-.6a88.5,88.5,0,0,0,15.27-72.42l1-.23a89.55,89.55,0,0,1-15.45,73.25Z" transform="translate(-81.72 -88.9)"/><path class="cls-1" d="M295.39,277.92l-.5-.86c4.24-2.51,18.45-12.17,22.85-31.13,4.5-19.36-4.39-34.47-7.22-38.64l.83-.57c2.89,4.26,11.95,19.68,7.37,39.44C314.22,265.51,299.73,275.36,295.39,277.92Z" transform="translate(-81.72 -88.9)"/><path class="cls-1" d="M324.5,236.05l-1-.12a54.23,54.23,0,0,0-6.65-33.19l.87-.49a55.19,55.19,0,0,1,6.77,33.8Z" transform="translate(-81.72 -88.9)"/><path class="cls-1" d="M264.86,342.34l-.73-.68a47.83,47.83,0,0,0,6.7-56.87l.87-.5a48.86,48.86,0,0,1-6.84,58Z" transform="translate(-81.72 -88.9)"/><path class="cls-1" d="M264.89,339.58l-.79-.61a50.3,50.3,0,0,0,2.29-58.11l.84-.55a51.3,51.3,0,0,1-2.34,59.27Z" transform="translate(-81.72 -88.9)"/><path class="cls-1" d="M263.29,338.34l-.92-.38a85.17,85.17,0,0,0,2.18-57.23l.95-.3a86.07,86.07,0,0,1-2.21,57.91Z" transform="translate(-81.72 -88.9)"/><path class="cls-1" d="M260.29,337.58l-1-.26a138.13,138.13,0,0,0,3-57.4l1-.16a139.21,139.21,0,0,1-3,57.82Z" transform="translate(-81.72 -88.9)"/><path class="cls-1" d="M258.12,336.42a207.12,207.12,0,0,1,2.78-53.32l1,.18a208.14,208.14,0,0,0-2.9,23.06,205.77,205.77,0,0,0,.14,30Z" transform="translate(-81.72 -88.9)"/><path class="cls-1" d="M256,335.92a56.5,56.5,0,0,1,3.37-51.64l.86.52a55.41,55.41,0,0,0-3.31,50.72Z" transform="translate(-81.72 -88.9)"/><path class="cls-1" d="M253.31,336.56a62.82,62.82,0,0,1,4.26-55.62l.86.51a61.86,61.86,0,0,0-4.19,54.74Z" transform="translate(-81.72 -88.9)"/><path class="cls-1" d="M287.77,337.49a103.36,103.36,0,0,1,6.9-46.52l.93.36a102.33,102.33,0,0,0-6.83,46.07Z" transform="translate(-81.72 -88.9)"/><path class="cls-1" d="M289.72,321.55l-.88-.47a102.2,102.2,0,0,0,11.53-36.6l1,.12a103.49,103.49,0,0,1-11.65,36.95Z" transform="translate(-81.72 -88.9)"/><path class="cls-1" d="M289.78,330.1l-1-.14a63.56,63.56,0,0,1,4.45-16.08,76,76,0,0,1,3.85-7.6,42.76,42.76,0,0,0,4.61-10.49,41.38,41.38,0,0,0,1.46-11.89l1,0a42.65,42.65,0,0,1-1.49,12.18A44.36,44.36,0,0,1,298,306.77a76.43,76.43,0,0,0-3.8,7.51A62.35,62.35,0,0,0,289.78,330.1Z" transform="translate(-81.72 -88.9)"/><path class="cls-1" d="M291.68,334l-1-.14a67.35,67.35,0,0,1,4.59-16.6,75.14,75.14,0,0,1,4.64-9,61.81,61.81,0,0,0,5.26-10.82,59.34,59.34,0,0,0,3.08-12.92l1,.12a60.79,60.79,0,0,1-3.14,13.14,62.26,62.26,0,0,1-5.33,11,74.07,74.07,0,0,0-4.59,8.91A65.89,65.89,0,0,0,291.68,334Z" transform="translate(-81.72 -88.9)"/><path class="cls-1" d="M248.38,259.45a51.18,51.18,0,0,1-7.85-22.34,50.44,50.44,0,0,1,1.34-17.67L246,204.22l1,.26-4.09,15.22a49.56,49.56,0,0,0-1.3,17.31,50.08,50.08,0,0,0,7.69,21.9Z" transform="translate(-81.72 -88.9)"/><path class="cls-1" d="M242.62,252.28a72.83,72.83,0,0,1-6.2-22.8,50.36,50.36,0,0,1-.28-9.33,45.2,45.2,0,0,1,1.13-7.15,22.78,22.78,0,0,0,.77-6.91,23.34,23.34,0,0,0-2.52-9.16l.89-.45A24.47,24.47,0,0,1,239,206a24,24,0,0,1-.79,7.18,44.35,44.35,0,0,0-1.11,7,49.32,49.32,0,0,0,.28,9.15,71.65,71.65,0,0,0,6.11,22.5Z" transform="translate(-81.72 -88.9)"/><path class="cls-1" d="M239.11,252.37A45.31,45.31,0,0,1,231.44,235a29,29,0,0,1-.56-8.1,45.63,45.63,0,0,0-.46-9.4c-.67-4.69-1.91-13.42-7.69-21.9a42.24,42.24,0,0,0-6.19-7.18l.68-.73a42.85,42.85,0,0,1,6.33,7.34c5.91,8.67,7.18,17.56,7.86,22.33a46.82,46.82,0,0,1,.47,9.58,27.9,27.9,0,0,0,.54,7.86,44.32,44.32,0,0,0,7.51,17Z" transform="translate(-81.72 -88.9)"/><path class="cls-1" d="M229.1,239c-1.58-5.42-3-11-4.21-16.57-.78-3.56-1.2-5.88-1.54-7.74-.3-1.66-.52-2.87-.85-4.16-2-7.8-7.15-15.23-15.36-22.08l.64-.77c8.37,7,13.65,14.59,15.69,22.6.34,1.33.56,2.55.86,4.23.34,1.86.76,4.16,1.53,7.71,1.21,5.55,2.62,11.11,4.2,16.5Z" transform="translate(-81.72 -88.9)"/><polygon class="cls-1" points="144.56 149.45 133.98 124.22 119.77 104.39 120.58 103.81 134.88 123.78 145.48 149.06 144.56 149.45"/><path class="cls-1" d="M222.74,237.55a132.8,132.8,0,0,1-8.86-14.14c-1.14-2.1-2-3.74-2.67-5.19a54,54,0,0,0-3.54-6.34,49.11,49.11,0,0,0-11.49-12l.6-.8a50,50,0,0,1,11.72,12.27,52.41,52.41,0,0,1,3.6,6.45c.71,1.44,1.53,3.07,2.66,5.16a131.82,131.82,0,0,0,8.8,14Z" transform="translate(-81.72 -88.9)"/><path class="cls-1" d="M222.81,239.23a81.8,81.8,0,0,0-9.86-7.77c-2.29-1.53-4-2.49-5.61-3.42s-3.3-1.89-5.32-3.32a55.41,55.41,0,0,1-10.65-9.95l.77-.64a54,54,0,0,0,10.46,9.77,59.13,59.13,0,0,0,5.24,3.27c1.65.94,3.35,1.91,5.67,3.46a83.62,83.62,0,0,1,10,7.87Z" transform="translate(-81.72 -88.9)"/><path class="cls-1" d="M233.58,246.91a143.32,143.32,0,0,0-13.64-5.59c-3.68-1.29-6.42-2.09-8.85-2.79a42.48,42.48,0,0,1-9.73-3.71,39,39,0,0,1-13-12.33l.83-.57a37.67,37.67,0,0,0,12.7,12,41.33,41.33,0,0,0,9.52,3.63c2.32.67,5.2,1.51,8.9,2.81A141.52,141.52,0,0,1,234,246Z" transform="translate(-81.72 -88.9)"/><path class="cls-1" d="M246.15,258.94a47.48,47.48,0,0,0-10.45-5.5,35.78,35.78,0,0,0-9.49-2.15c-2.23-.28-4.77-.59-8.43-1.38-7.09-1.51-13.78-2.95-20.33-7.62A37.21,37.21,0,0,1,187.76,232l.84-.55a36.31,36.31,0,0,0,9.43,10c6.38,4.55,13,6,20,7.46,3.61.77,6.13,1.08,8.35,1.35a37.3,37.3,0,0,1,9.72,2.21,48.78,48.78,0,0,1,10.66,5.62Z" transform="translate(-81.72 -88.9)"/><path class="cls-1" d="M250.68,264.28a59.43,59.43,0,0,0-14.78-4.2,38.43,38.43,0,0,0-8.34-.41,30.79,30.79,0,0,1-7.48-.41,49.62,49.62,0,0,1-21-9.32,56.63,56.63,0,0,1-10.73-10.08l.77-.63a55.86,55.86,0,0,0,10.54,9.9,48.93,48.93,0,0,0,20.59,9.15,30.91,30.91,0,0,0,7.27.39,39.71,39.71,0,0,1,8.53.42,60.38,60.38,0,0,1,15,4.27Z" transform="translate(-81.72 -88.9)"/><path class="cls-1" d="M221.73,267.94a15.15,15.15,0,0,1-4.12-.55c-1.87-.48-3.64-1.18-11-6.19-4.7-3.19-9.41-6.58-14-10.09l.61-.79c4.56,3.49,9.25,6.88,13.93,10.05,7.27,4.92,9,5.59,10.74,6.06,3.13.82,5.2.57,12.07-.25l3.28-.39c4.81-.57,9.79-1.1,14.8-1.58l.1,1c-5,.48-10,1-14.79,1.57l-3.27.39A77.88,77.88,0,0,1,221.73,267.94Z" transform="translate(-81.72 -88.9)"/><path class="cls-1" d="M222.13,271.76h-.4c-11.29-.15-21.17-7.07-27.46-12.85l.67-.73c6.17,5.66,15.83,12.44,26.8,12.58a90.79,90.79,0,0,0,13.49-1.35,96.88,96.88,0,0,0,12.69-3.06l.3,1a98.87,98.87,0,0,1-12.82,3.09A97,97,0,0,1,222.13,271.76Z" transform="translate(-81.72 -88.9)"/><path class="cls-1" d="M165.76,249.54a10,10,0,0,1-2.21-.25c-3.24-.74-5-2.85-9.39-8.84-11.56-15.56-12.36-17.68-12.86-20.35-.08-.42-.24-3-.69-10.45v-.17c-.29-4.77-.52-8.68-.66-11.28l1,0c.14,2.59.36,6.5.65,11.27v.17c.39,6.41.61,9.95.68,10.33.48,2.52,1.26,4.55,12.68,19.94,4.38,5.89,5.9,7.79,8.81,8.46,2.62.59,5.61,0,8.64-1.83l.51.86A14.25,14.25,0,0,1,165.76,249.54Z" transform="translate(-81.72 -88.9)"/></g></svg>